# xmcd
#
# Track frame offsets:
#	150
#	17212
#	31550
#	48998
#	63557
#	78720
#	98808
#	115563
#	135272
#	149837
#	166602
#	181971
#
# Disc length: 2682 seconds
# Revision: 0
# Processed by: cddbd v1.5.2PL0 Copyright (c) Steve Scherf et al.
# Submitted via: dBpowerAMP V12.0
#
DISCID=950a780c
DTITLE=Maia Sharp - Echo
DYEAR=2009
DGENRE=Americana
TTITLE0=Polite Society
TTITLE1=John Q. Lonely
TTITLE2=Death By Perfection (Featuring Bonnie Raitt)
TTITLE3=You Are Mine
TTITLE4=Unbreakable
TTITLE5=Where Do I Begin
TTITLE6=How I Could Have Loved You
TTITLE7=Whole Flat World
TTITLE8=Angel On My Shoulder
TTITLE9=Real Thing
TTITLE10=Why Do You Want To Know
TTITLE11=The Girl On Her Way
EXTD=
EXTT0=
EXTT1=
EXTT2=
EXTT3=
EXTT4=
EXTT5=
EXTT6=
EXTT7=
EXTT8=
EXTT9=
EXTT10=
EXTT11=
PLAYORDER=
